<mxfile host="app.diagrams.net" modified="2023-04-11T01:09:02.243Z" agent="Mozilla/5.0 (Windows NT 10.0; Win64; x64) AppleWebKit/537.36 (KHTML, like Gecko) Chrome/111.0.0.0 Safari/537.36" etag="rO446dbhN52PBQILUjw-" version="21.1.5" type="device">
  <diagram id="L7MIWZaFchMFNF4nSB8t" name="Page-1">
    <mxGraphModel dx="1877" dy="1026" grid="0" gridSize="10" guides="1" tooltips="1" connect="1" arrows="1" fold="1" page="0" pageScale="1" pageWidth="827" pageHeight="1169" background="#F1FAEE" math="0" shadow="0">
      <root>
        <mxCell id="0" />
        <mxCell id="1" parent="0" />
        <mxCell id="9KyPF48bXteJOs5gvEsx-2" value="&lt;b&gt;Suscripción&lt;/b&gt;" style="rounded=0;whiteSpace=wrap;html=1;fillColor=#f5f5f5;strokeColor=#666666;fontColor=#333333;" parent="1" vertex="1">
          <mxGeometry x="226" y="-44" width="120" height="31" as="geometry" />
        </mxCell>
        <mxCell id="9KyPF48bXteJOs5gvEsx-3" value="&lt;b&gt;Usuario&lt;/b&gt;" style="rounded=0;whiteSpace=wrap;html=1;fillColor=#f5f5f5;strokeColor=#666666;fontColor=#333333;" parent="1" vertex="1">
          <mxGeometry x="-183" y="293.5" width="120" height="31" as="geometry" />
        </mxCell>
        <mxCell id="9KyPF48bXteJOs5gvEsx-4" value="&lt;b&gt;Contenido&lt;/b&gt;" style="rounded=0;whiteSpace=wrap;html=1;fillColor=#f5f5f5;strokeColor=#666666;fontColor=#333333;" parent="1" vertex="1">
          <mxGeometry x="234" y="293.5" width="120" height="31" as="geometry" />
        </mxCell>
        <mxCell id="9KyPF48bXteJOs5gvEsx-5" value="&lt;b&gt;Dispositivo&lt;/b&gt;" style="rounded=0;whiteSpace=wrap;html=1;fillColor=#f5f5f5;strokeColor=#666666;fontColor=#333333;" parent="1" vertex="1">
          <mxGeometry x="2" y="528" width="120" height="31" as="geometry" />
        </mxCell>
        <mxCell id="9KyPF48bXteJOs5gvEsx-6" value="&lt;u&gt;ID Cuenta&lt;/u&gt;" style="ellipse;whiteSpace=wrap;html=1;fillColor=#e1d5e7;strokeColor=#9673a6;gradientColor=none;" parent="1" vertex="1">
          <mxGeometry x="-364" y="-108" width="120" height="26" as="geometry" />
        </mxCell>
        <mxCell id="9KyPF48bXteJOs5gvEsx-7" value="IP" style="ellipse;whiteSpace=wrap;html=1;fillColor=#e1d5e7;strokeColor=#9673a6;gradientColor=none;" parent="1" vertex="1">
          <mxGeometry x="-364" y="-65" width="120" height="26" as="geometry" />
        </mxCell>
        <mxCell id="9KyPF48bXteJOs5gvEsx-9" value="Situación de cuenta" style="ellipse;whiteSpace=wrap;html=1;fillColor=#e1d5e7;strokeColor=#9673a6;gradientColor=none;" parent="1" vertex="1">
          <mxGeometry x="-364" y="-27.5" width="120" height="26" as="geometry" />
        </mxCell>
        <mxCell id="9KyPF48bXteJOs5gvEsx-10" value="Fecha registro" style="ellipse;whiteSpace=wrap;html=1;fillColor=#e1d5e7;strokeColor=#9673a6;gradientColor=none;" parent="1" vertex="1">
          <mxGeometry x="-364" y="11" width="120" height="26" as="geometry" />
        </mxCell>
        <mxCell id="9KyPF48bXteJOs5gvEsx-11" value="Método de pago" style="ellipse;whiteSpace=wrap;html=1;fillColor=#e1d5e7;strokeColor=#9673a6;gradientColor=none;" parent="1" vertex="1">
          <mxGeometry x="-364" y="54" width="120" height="26" as="geometry" />
        </mxCell>
        <mxCell id="9KyPF48bXteJOs5gvEsx-21" value="&lt;u&gt;ID Usuario&lt;/u&gt;" style="ellipse;whiteSpace=wrap;html=1;fillColor=#e1d5e7;strokeColor=#9673a6;gradientColor=none;" parent="1" vertex="1">
          <mxGeometry x="-364" y="225" width="120" height="26" as="geometry" />
        </mxCell>
        <mxCell id="9KyPF48bXteJOs5gvEsx-23" value="Contraseña" style="ellipse;whiteSpace=wrap;html=1;fillColor=#e1d5e7;strokeColor=#9673a6;gradientColor=none;" parent="1" vertex="1">
          <mxGeometry x="-364" y="100" width="120" height="26" as="geometry" />
        </mxCell>
        <mxCell id="9KyPF48bXteJOs5gvEsx-25" value="Correo Electrónico" style="ellipse;whiteSpace=wrap;html=1;fillColor=#e1d5e7;strokeColor=#9673a6;gradientColor=none;" parent="1" vertex="1">
          <mxGeometry x="-364" y="-159" width="120" height="26" as="geometry" />
        </mxCell>
        <mxCell id="9KyPF48bXteJOs5gvEsx-26" value="Nombre" style="ellipse;whiteSpace=wrap;html=1;fillColor=#e1d5e7;strokeColor=#9673a6;gradientColor=none;" parent="1" vertex="1">
          <mxGeometry x="-362" y="296" width="120" height="26" as="geometry" />
        </mxCell>
        <mxCell id="9KyPF48bXteJOs5gvEsx-30" value="Menor de edad" style="ellipse;whiteSpace=wrap;html=1;fillColor=#e1d5e7;strokeColor=#9673a6;gradientColor=none;" parent="1" vertex="1">
          <mxGeometry x="-361" y="370" width="124.5" height="26" as="geometry" />
        </mxCell>
        <mxCell id="9KyPF48bXteJOs5gvEsx-31" value="&lt;u&gt;ID Dispositivo&lt;/u&gt;" style="ellipse;whiteSpace=wrap;html=1;fillColor=#e1d5e7;strokeColor=#9673a6;gradientColor=none;" parent="1" vertex="1">
          <mxGeometry x="-128" y="564" width="120" height="26" as="geometry" />
        </mxCell>
        <mxCell id="9KyPF48bXteJOs5gvEsx-32" value="Tipo" style="ellipse;whiteSpace=wrap;html=1;fillColor=#e1d5e7;strokeColor=#9673a6;gradientColor=none;" parent="1" vertex="1">
          <mxGeometry x="-102" y="606" width="120" height="26" as="geometry" />
        </mxCell>
        <mxCell id="9KyPF48bXteJOs5gvEsx-33" value="Inteligente" style="ellipse;whiteSpace=wrap;html=1;fillColor=#e1d5e7;strokeColor=#9673a6;gradientColor=none;" parent="1" vertex="1">
          <mxGeometry x="-6" y="632" width="136" height="26" as="geometry" />
        </mxCell>
        <mxCell id="9KyPF48bXteJOs5gvEsx-35" value="Descargas" style="ellipse;whiteSpace=wrap;html=1;fillColor=#e1d5e7;strokeColor=#9673a6;gradientColor=none;" parent="1" vertex="1">
          <mxGeometry x="-41" y="436" width="77" height="26" as="geometry" />
        </mxCell>
        <mxCell id="9KyPF48bXteJOs5gvEsx-36" value="&lt;u&gt;Titulo original&lt;/u&gt;" style="ellipse;whiteSpace=wrap;html=1;fillColor=#e1d5e7;strokeColor=#9673a6;gradientColor=none;" parent="1" vertex="1">
          <mxGeometry x="346" y="195.5" width="86" height="26" as="geometry" />
        </mxCell>
        <mxCell id="9KyPF48bXteJOs5gvEsx-37" value="Genero/Tema&amp;nbsp;" style="ellipse;whiteSpace=wrap;html=1;fillColor=#e1d5e7;strokeColor=#9673a6;gradientColor=none;" parent="1" vertex="1">
          <mxGeometry x="142" y="222.5" width="91" height="26" as="geometry" />
        </mxCell>
        <mxCell id="9KyPF48bXteJOs5gvEsx-38" value="Productor&amp;nbsp;" style="ellipse;whiteSpace=wrap;html=1;fillColor=#e1d5e7;strokeColor=#9673a6;gradientColor=none;" parent="1" vertex="1">
          <mxGeometry x="314" y="168" width="75" height="24" as="geometry" />
        </mxCell>
        <mxCell id="9KyPF48bXteJOs5gvEsx-39" value="Reparto" style="ellipse;whiteSpace=wrap;html=1;fillColor=#e1d5e7;strokeColor=#9673a6;gradientColor=none;" parent="1" vertex="1">
          <mxGeometry x="354" y="225" width="68" height="26" as="geometry" />
        </mxCell>
        <mxCell id="9KyPF48bXteJOs5gvEsx-40" value="Director" style="ellipse;whiteSpace=wrap;html=1;fillColor=#e1d5e7;strokeColor=#9673a6;gradientColor=none;" parent="1" vertex="1">
          <mxGeometry x="170" y="196.5" width="65" height="24" as="geometry" />
        </mxCell>
        <mxCell id="9KyPF48bXteJOs5gvEsx-41" value="Calificación" style="ellipse;whiteSpace=wrap;html=1;fillColor=#e1d5e7;strokeColor=#9673a6;gradientColor=none;" parent="1" vertex="1">
          <mxGeometry x="193" y="166" width="73" height="26" as="geometry" />
        </mxCell>
        <mxCell id="9KyPF48bXteJOs5gvEsx-42" value="&lt;b&gt;Peliculas&lt;/b&gt;" style="rounded=0;whiteSpace=wrap;html=1;fillColor=#f5f5f5;strokeColor=#666666;fontColor=#333333;" parent="1" vertex="1">
          <mxGeometry x="563" y="229.5" width="116" height="23" as="geometry" />
        </mxCell>
        <mxCell id="9KyPF48bXteJOs5gvEsx-43" value="&lt;b&gt;Series&lt;/b&gt;" style="rounded=0;whiteSpace=wrap;html=1;fillColor=#f5f5f5;strokeColor=#666666;fontColor=#333333;" parent="1" vertex="1">
          <mxGeometry x="563" y="298.5" width="116" height="23" as="geometry" />
        </mxCell>
        <mxCell id="9KyPF48bXteJOs5gvEsx-44" value="&lt;b&gt;Documentales&lt;/b&gt;" style="rounded=0;whiteSpace=wrap;html=1;fillColor=#f5f5f5;strokeColor=#666666;fontColor=#333333;" parent="1" vertex="1">
          <mxGeometry x="563" y="366.5" width="116" height="23" as="geometry" />
        </mxCell>
        <mxCell id="9KyPF48bXteJOs5gvEsx-46" value="Fecha pago" style="ellipse;whiteSpace=wrap;html=1;fillColor=#e1d5e7;strokeColor=#9673a6;gradientColor=none;" parent="1" vertex="1">
          <mxGeometry x="141" y="-156" width="120" height="26" as="geometry" />
        </mxCell>
        <mxCell id="9KyPF48bXteJOs5gvEsx-47" value="&lt;u&gt;ID Suscripción&lt;/u&gt;" style="ellipse;whiteSpace=wrap;html=1;fillColor=#e1d5e7;strokeColor=#9673a6;gradientColor=none;" parent="1" vertex="1">
          <mxGeometry x="83" y="-113" width="120" height="26" as="geometry" />
        </mxCell>
        <mxCell id="9KyPF48bXteJOs5gvEsx-48" value="Vencimiento/Plazo" style="ellipse;whiteSpace=wrap;html=1;fillColor=#e1d5e7;strokeColor=#9673a6;gradientColor=none;" parent="1" vertex="1">
          <mxGeometry x="232" y="-193" width="120" height="26" as="geometry" />
        </mxCell>
        <mxCell id="9KyPF48bXteJOs5gvEsx-49" value="Costo mensual" style="ellipse;whiteSpace=wrap;html=1;fillColor=#e1d5e7;strokeColor=#9673a6;gradientColor=none;" parent="1" vertex="1">
          <mxGeometry x="324" y="-151" width="120" height="26" as="geometry" />
        </mxCell>
        <mxCell id="9KyPF48bXteJOs5gvEsx-50" value="Descuento" style="ellipse;whiteSpace=wrap;html=1;fillColor=#e1d5e7;strokeColor=#9673a6;gradientColor=none;" parent="1" vertex="1">
          <mxGeometry x="369" y="-103" width="120" height="26" as="geometry" />
        </mxCell>
        <mxCell id="9KyPF48bXteJOs5gvEsx-51" value="&lt;b&gt;Cuenta&lt;/b&gt;" style="rounded=0;whiteSpace=wrap;html=1;fillColor=#f5f5f5;strokeColor=#666666;fontColor=#333333;" parent="1" vertex="1">
          <mxGeometry x="-183" y="-44" width="120" height="31" as="geometry" />
        </mxCell>
        <mxCell id="9KyPF48bXteJOs5gvEsx-53" value="Permite" style="rhombus;whiteSpace=wrap;html=1;fillColor=#d5e8d4;strokeColor=#82b366;" parent="1" vertex="1">
          <mxGeometry x="-163" y="100" width="80" height="63" as="geometry" />
        </mxCell>
        <mxCell id="9KyPF48bXteJOs5gvEsx-56" value="" style="endArrow=none;html=1;rounded=0;entryX=0.5;entryY=1;entryDx=0;entryDy=0;exitX=0.5;exitY=0;exitDx=0;exitDy=0;" parent="1" source="9KyPF48bXteJOs5gvEsx-53" target="9KyPF48bXteJOs5gvEsx-51" edge="1">
          <mxGeometry width="50" height="50" relative="1" as="geometry">
            <mxPoint x="-143" y="98" as="sourcePoint" />
            <mxPoint x="-93" y="48" as="targetPoint" />
          </mxGeometry>
        </mxCell>
        <mxCell id="9KyPF48bXteJOs5gvEsx-57" value="" style="endArrow=none;html=1;rounded=0;entryX=0.5;entryY=1;entryDx=0;entryDy=0;exitX=0.5;exitY=0;exitDx=0;exitDy=0;" parent="1" source="9KyPF48bXteJOs5gvEsx-3" edge="1">
          <mxGeometry width="50" height="50" relative="1" as="geometry">
            <mxPoint x="-123.67" y="276" as="sourcePoint" />
            <mxPoint x="-123.67" y="163" as="targetPoint" />
          </mxGeometry>
        </mxCell>
        <mxCell id="9KyPF48bXteJOs5gvEsx-58" value="1" style="text;html=1;strokeColor=none;fillColor=none;align=center;verticalAlign=middle;whiteSpace=wrap;rounded=0;" parent="1" vertex="1">
          <mxGeometry x="-126" y="-12" width="24" height="19" as="geometry" />
        </mxCell>
        <mxCell id="9KyPF48bXteJOs5gvEsx-60" value="3" style="text;html=1;strokeColor=none;fillColor=none;align=center;verticalAlign=middle;whiteSpace=wrap;rounded=0;" parent="1" vertex="1">
          <mxGeometry x="-129" y="277" width="24" height="19" as="geometry" />
        </mxCell>
        <mxCell id="9KyPF48bXteJOs5gvEsx-61" value="" style="endArrow=none;html=1;rounded=0;entryX=1;entryY=0.5;entryDx=0;entryDy=0;exitX=0;exitY=1;exitDx=0;exitDy=0;" parent="1" target="9KyPF48bXteJOs5gvEsx-51" edge="1">
          <mxGeometry width="50" height="50" relative="1" as="geometry">
            <mxPoint x="41" y="-28" as="sourcePoint" />
            <mxPoint x="-113" y="-3" as="targetPoint" />
          </mxGeometry>
        </mxCell>
        <mxCell id="9KyPF48bXteJOs5gvEsx-62" value="1" style="text;html=1;strokeColor=none;fillColor=none;align=center;verticalAlign=middle;whiteSpace=wrap;rounded=0;" parent="1" vertex="1">
          <mxGeometry x="-63" y="-46.5" width="24" height="19" as="geometry" />
        </mxCell>
        <mxCell id="9KyPF48bXteJOs5gvEsx-66" value="Abona" style="rhombus;whiteSpace=wrap;html=1;fillColor=#d5e8d4;strokeColor=#82b366;" parent="1" vertex="1">
          <mxGeometry x="41" y="-60" width="80" height="63" as="geometry" />
        </mxCell>
        <mxCell id="9KyPF48bXteJOs5gvEsx-69" value="" style="endArrow=none;html=1;rounded=0;entryX=1;entryY=0.5;entryDx=0;entryDy=0;exitX=0;exitY=1;exitDx=0;exitDy=0;" parent="1" edge="1">
          <mxGeometry width="50" height="50" relative="1" as="geometry">
            <mxPoint x="225" y="-28.83" as="sourcePoint" />
            <mxPoint x="121" y="-28.83" as="targetPoint" />
          </mxGeometry>
        </mxCell>
        <mxCell id="9KyPF48bXteJOs5gvEsx-70" value="Reproducir" style="rhombus;whiteSpace=wrap;html=1;fillColor=#d5e8d4;strokeColor=#82b366;" parent="1" vertex="1">
          <mxGeometry x="255" y="402" width="80" height="63" as="geometry" />
        </mxCell>
        <mxCell id="9KyPF48bXteJOs5gvEsx-72" value="N" style="text;html=1;strokeColor=none;fillColor=none;align=center;verticalAlign=middle;whiteSpace=wrap;rounded=0;" parent="1" vertex="1">
          <mxGeometry x="195" y="-47" width="32" height="19" as="geometry" />
        </mxCell>
        <mxCell id="9KyPF48bXteJOs5gvEsx-74" value="Descargar" style="rhombus;whiteSpace=wrap;html=1;fillColor=#d5e8d4;strokeColor=#82b366;" parent="1" vertex="1">
          <mxGeometry x="6" y="356.5" width="80" height="63" as="geometry" />
        </mxCell>
        <mxCell id="9KyPF48bXteJOs5gvEsx-76" value="Asocia" style="rhombus;whiteSpace=wrap;html=1;fillColor=#d5e8d4;strokeColor=#82b366;" parent="1" vertex="1">
          <mxGeometry x="-163" y="402" width="80" height="63" as="geometry" />
        </mxCell>
        <mxCell id="9KyPF48bXteJOs5gvEsx-77" value="" style="endArrow=none;html=1;rounded=0;exitX=0.5;exitY=0;exitDx=0;exitDy=0;" parent="1" source="9KyPF48bXteJOs5gvEsx-76" edge="1">
          <mxGeometry width="50" height="50" relative="1" as="geometry">
            <mxPoint x="-139" y="391" as="sourcePoint" />
            <mxPoint x="-124" y="325" as="targetPoint" />
          </mxGeometry>
        </mxCell>
        <mxCell id="9KyPF48bXteJOs5gvEsx-78" value="" style="endArrow=none;html=1;rounded=0;exitX=0.5;exitY=1;exitDx=0;exitDy=0;" parent="1" source="9KyPF48bXteJOs5gvEsx-76" edge="1">
          <mxGeometry width="50" height="50" relative="1" as="geometry">
            <mxPoint x="-124" y="510" as="sourcePoint" />
            <mxPoint x="2" y="542" as="targetPoint" />
            <Array as="points">
              <mxPoint x="-124" y="542" />
            </Array>
          </mxGeometry>
        </mxCell>
        <mxCell id="9KyPF48bXteJOs5gvEsx-80" value="" style="endArrow=none;html=1;rounded=0;exitX=0.5;exitY=0;exitDx=0;exitDy=0;entryX=0.5;entryY=1;entryDx=0;entryDy=0;" parent="1" source="9KyPF48bXteJOs5gvEsx-70" target="9KyPF48bXteJOs5gvEsx-4" edge="1">
          <mxGeometry width="50" height="50" relative="1" as="geometry">
            <mxPoint x="306" y="398.5" as="sourcePoint" />
            <mxPoint x="306.33" y="331.5" as="targetPoint" />
          </mxGeometry>
        </mxCell>
        <mxCell id="9KyPF48bXteJOs5gvEsx-81" value="" style="endArrow=none;html=1;rounded=0;exitX=1;exitY=0.5;exitDx=0;exitDy=0;" parent="1" source="9KyPF48bXteJOs5gvEsx-5" target="9KyPF48bXteJOs5gvEsx-70" edge="1">
          <mxGeometry width="50" height="50" relative="1" as="geometry">
            <mxPoint x="230.32999999999998" y="578" as="sourcePoint" />
            <mxPoint x="296" y="510" as="targetPoint" />
            <Array as="points">
              <mxPoint x="297" y="544" />
            </Array>
          </mxGeometry>
        </mxCell>
        <mxCell id="9KyPF48bXteJOs5gvEsx-84" value="" style="endArrow=none;html=1;rounded=0;entryX=0;entryY=0.5;entryDx=0;entryDy=0;" parent="1" target="9KyPF48bXteJOs5gvEsx-74" edge="1">
          <mxGeometry width="50" height="50" relative="1" as="geometry">
            <mxPoint x="-93" y="387" as="sourcePoint" />
            <mxPoint x="15.330000000000013" y="301" as="targetPoint" />
          </mxGeometry>
        </mxCell>
        <mxCell id="9KyPF48bXteJOs5gvEsx-89" value="Lista favoritos" style="ellipse;whiteSpace=wrap;html=1;fillColor=#e1d5e7;strokeColor=#9673a6;gradientColor=none;" parent="1" vertex="1">
          <mxGeometry x="-361" y="333.5" width="120" height="26" as="geometry" />
        </mxCell>
        <mxCell id="Yak00n13jt4ezQsWg91e-1" value="1" style="text;html=1;strokeColor=none;fillColor=none;align=center;verticalAlign=middle;whiteSpace=wrap;rounded=0;" parent="1" vertex="1">
          <mxGeometry x="-129" y="325" width="24" height="19" as="geometry" />
        </mxCell>
        <mxCell id="Yak00n13jt4ezQsWg91e-3" value="5" style="text;html=1;strokeColor=none;fillColor=none;align=center;verticalAlign=middle;whiteSpace=wrap;rounded=0;" parent="1" vertex="1">
          <mxGeometry x="-19" y="524" width="24" height="19" as="geometry" />
        </mxCell>
        <mxCell id="Yak00n13jt4ezQsWg91e-5" value="" style="curved=1;endArrow=classic;html=1;rounded=0;exitX=0.25;exitY=0;exitDx=0;exitDy=0;" parent="1" source="9KyPF48bXteJOs5gvEsx-3" edge="1">
          <mxGeometry width="50" height="50" relative="1" as="geometry">
            <mxPoint x="-183" y="313.5" as="sourcePoint" />
            <mxPoint x="-140" y="291" as="targetPoint" />
            <Array as="points">
              <mxPoint x="-168" y="253" />
              <mxPoint x="-136" y="244" />
            </Array>
          </mxGeometry>
        </mxCell>
        <mxCell id="Yak00n13jt4ezQsWg91e-6" value="Watch party" style="text;html=1;strokeColor=none;fillColor=none;align=center;verticalAlign=middle;whiteSpace=wrap;rounded=0;" parent="1" vertex="1">
          <mxGeometry x="-197" y="219" width="60" height="30" as="geometry" />
        </mxCell>
        <mxCell id="hoCIb34Ze-bhecXJoOf7-3" value="Lista Favoritos" style="rhombus;whiteSpace=wrap;html=1;fillColor=#d5e8d4;strokeColor=#82b366;" parent="1" vertex="1">
          <mxGeometry x="-3" y="271" width="98" height="77" as="geometry" />
        </mxCell>
        <mxCell id="hoCIb34Ze-bhecXJoOf7-11" value="" style="endArrow=none;html=1;rounded=0;entryX=0.75;entryY=1;entryDx=0;entryDy=0;" parent="1" target="9KyPF48bXteJOs5gvEsx-3" edge="1">
          <mxGeometry width="50" height="50" relative="1" as="geometry">
            <mxPoint x="-93" y="387" as="sourcePoint" />
            <mxPoint x="120" y="247" as="targetPoint" />
          </mxGeometry>
        </mxCell>
        <mxCell id="hoCIb34Ze-bhecXJoOf7-17" value="" style="endArrow=none;html=1;rounded=0;exitX=0.5;exitY=1;exitDx=0;exitDy=0;entryX=0.5;entryY=0;entryDx=0;entryDy=0;" parent="1" source="9KyPF48bXteJOs5gvEsx-74" target="9KyPF48bXteJOs5gvEsx-35" edge="1">
          <mxGeometry width="50" height="50" relative="1" as="geometry">
            <mxPoint x="13" y="342" as="sourcePoint" />
            <mxPoint x="87" y="423" as="targetPoint" />
          </mxGeometry>
        </mxCell>
        <mxCell id="hoCIb34Ze-bhecXJoOf7-18" value="Historial Reproducción" style="rhombus;whiteSpace=wrap;html=1;fillColor=#d5e8d4;strokeColor=#82b366;" parent="1" vertex="1">
          <mxGeometry x="-3" y="188" width="98" height="77" as="geometry" />
        </mxCell>
        <mxCell id="hoCIb34Ze-bhecXJoOf7-22" value="" style="endArrow=none;html=1;rounded=0;exitX=1;exitY=0.5;exitDx=0;exitDy=0;entryX=0.25;entryY=0;entryDx=0;entryDy=0;" parent="1" source="hoCIb34Ze-bhecXJoOf7-18" target="9KyPF48bXteJOs5gvEsx-4" edge="1">
          <mxGeometry width="50" height="50" relative="1" as="geometry">
            <mxPoint x="162" y="249" as="sourcePoint" />
            <mxPoint x="220" y="157" as="targetPoint" />
            <Array as="points" />
          </mxGeometry>
        </mxCell>
        <mxCell id="hoCIb34Ze-bhecXJoOf7-25" value="" style="endArrow=none;html=1;rounded=0;exitX=0.75;exitY=0;exitDx=0;exitDy=0;entryX=0;entryY=0.5;entryDx=0;entryDy=0;" parent="1" source="9KyPF48bXteJOs5gvEsx-3" target="hoCIb34Ze-bhecXJoOf7-18" edge="1">
          <mxGeometry width="50" height="50" relative="1" as="geometry">
            <mxPoint x="-89" y="216" as="sourcePoint" />
            <mxPoint x="-39" y="166" as="targetPoint" />
            <Array as="points">
              <mxPoint x="-93" y="227" />
            </Array>
          </mxGeometry>
        </mxCell>
        <mxCell id="hoCIb34Ze-bhecXJoOf7-26" value="Cont_Peli" style="rhombus;whiteSpace=wrap;html=1;fillColor=#d5e8d4;strokeColor=#82b366;" parent="1" vertex="1">
          <mxGeometry x="472" y="209.5" width="68" height="63" as="geometry" />
        </mxCell>
        <mxCell id="hoCIb34Ze-bhecXJoOf7-27" value="Cont_Serie" style="rhombus;whiteSpace=wrap;html=1;fillColor=#d5e8d4;strokeColor=#82b366;" parent="1" vertex="1">
          <mxGeometry x="471" y="278" width="68" height="63" as="geometry" />
        </mxCell>
        <mxCell id="hoCIb34Ze-bhecXJoOf7-28" value="Cont_Docu" style="rhombus;whiteSpace=wrap;html=1;fillColor=#d5e8d4;strokeColor=#82b366;" parent="1" vertex="1">
          <mxGeometry x="471" y="345.5" width="68" height="63" as="geometry" />
        </mxCell>
        <mxCell id="hoCIb34Ze-bhecXJoOf7-29" value="" style="endArrow=none;html=1;rounded=0;exitX=1;exitY=0.5;exitDx=0;exitDy=0;entryX=0;entryY=0.5;entryDx=0;entryDy=0;" parent="1" source="9KyPF48bXteJOs5gvEsx-4" target="hoCIb34Ze-bhecXJoOf7-26" edge="1">
          <mxGeometry width="50" height="50" relative="1" as="geometry">
            <mxPoint x="417" y="349" as="sourcePoint" />
            <mxPoint x="467" y="299" as="targetPoint" />
          </mxGeometry>
        </mxCell>
        <mxCell id="hoCIb34Ze-bhecXJoOf7-30" value="" style="endArrow=none;html=1;rounded=0;exitX=1;exitY=0.5;exitDx=0;exitDy=0;entryX=0;entryY=0.5;entryDx=0;entryDy=0;" parent="1" source="9KyPF48bXteJOs5gvEsx-4" target="hoCIb34Ze-bhecXJoOf7-27" edge="1">
          <mxGeometry width="50" height="50" relative="1" as="geometry">
            <mxPoint x="417" y="349" as="sourcePoint" />
            <mxPoint x="467" y="299" as="targetPoint" />
          </mxGeometry>
        </mxCell>
        <mxCell id="hoCIb34Ze-bhecXJoOf7-31" value="" style="endArrow=none;html=1;rounded=0;exitX=1;exitY=0.5;exitDx=0;exitDy=0;entryX=0;entryY=0.5;entryDx=0;entryDy=0;" parent="1" source="9KyPF48bXteJOs5gvEsx-4" target="hoCIb34Ze-bhecXJoOf7-28" edge="1">
          <mxGeometry width="50" height="50" relative="1" as="geometry">
            <mxPoint x="417" y="349" as="sourcePoint" />
            <mxPoint x="467" y="299" as="targetPoint" />
          </mxGeometry>
        </mxCell>
        <mxCell id="hoCIb34Ze-bhecXJoOf7-32" value="" style="endArrow=none;html=1;rounded=0;exitX=1;exitY=0.5;exitDx=0;exitDy=0;entryX=0;entryY=0.5;entryDx=0;entryDy=0;" parent="1" source="hoCIb34Ze-bhecXJoOf7-28" target="9KyPF48bXteJOs5gvEsx-44" edge="1">
          <mxGeometry width="50" height="50" relative="1" as="geometry">
            <mxPoint x="554" y="347.5" as="sourcePoint" />
            <mxPoint x="604" y="297.5" as="targetPoint" />
          </mxGeometry>
        </mxCell>
        <mxCell id="hoCIb34Ze-bhecXJoOf7-33" value="" style="endArrow=none;html=1;rounded=0;exitX=1;exitY=0.5;exitDx=0;exitDy=0;entryX=0;entryY=0.5;entryDx=0;entryDy=0;" parent="1" source="hoCIb34Ze-bhecXJoOf7-27" target="9KyPF48bXteJOs5gvEsx-43" edge="1">
          <mxGeometry width="50" height="50" relative="1" as="geometry">
            <mxPoint x="554" y="347.5" as="sourcePoint" />
            <mxPoint x="604" y="297.5" as="targetPoint" />
          </mxGeometry>
        </mxCell>
        <mxCell id="hoCIb34Ze-bhecXJoOf7-34" value="" style="endArrow=none;html=1;rounded=0;exitX=1;exitY=0.5;exitDx=0;exitDy=0;entryX=0;entryY=0.5;entryDx=0;entryDy=0;" parent="1" source="hoCIb34Ze-bhecXJoOf7-26" target="9KyPF48bXteJOs5gvEsx-42" edge="1">
          <mxGeometry width="50" height="50" relative="1" as="geometry">
            <mxPoint x="554" y="347.5" as="sourcePoint" />
            <mxPoint x="604" y="297.5" as="targetPoint" />
          </mxGeometry>
        </mxCell>
        <mxCell id="hoCIb34Ze-bhecXJoOf7-35" value="Casting" style="ellipse;whiteSpace=wrap;html=1;fillColor=#e1d5e7;strokeColor=#9673a6;gradientColor=none;" parent="1" vertex="1">
          <mxGeometry x="122" y="606" width="120" height="26" as="geometry" />
        </mxCell>
        <mxCell id="hoCIb34Ze-bhecXJoOf7-38" value="1" style="text;html=1;strokeColor=none;fillColor=none;align=center;verticalAlign=middle;whiteSpace=wrap;rounded=0;" parent="1" vertex="1">
          <mxGeometry x="-111" y="277" width="24" height="19" as="geometry" />
        </mxCell>
        <mxCell id="hoCIb34Ze-bhecXJoOf7-40" value="10" style="text;html=1;strokeColor=none;fillColor=none;align=center;verticalAlign=middle;whiteSpace=wrap;rounded=0;" parent="1" vertex="1">
          <mxGeometry x="256" y="278" width="24" height="19" as="geometry" />
        </mxCell>
        <mxCell id="hoCIb34Ze-bhecXJoOf7-42" value="1" style="text;html=1;strokeColor=none;fillColor=none;align=center;verticalAlign=middle;whiteSpace=wrap;rounded=0;" parent="1" vertex="1">
          <mxGeometry x="-70" y="291" width="24" height="19" as="geometry" />
        </mxCell>
        <mxCell id="hoCIb34Ze-bhecXJoOf7-43" value="N" style="text;html=1;strokeColor=none;fillColor=none;align=center;verticalAlign=middle;whiteSpace=wrap;rounded=0;" parent="1" vertex="1">
          <mxGeometry x="216" y="306" width="24" height="19" as="geometry" />
        </mxCell>
        <mxCell id="hoCIb34Ze-bhecXJoOf7-46" value="" style="endArrow=none;html=1;rounded=0;exitX=1;exitY=0.5;exitDx=0;exitDy=0;entryX=0;entryY=0.5;entryDx=0;entryDy=0;" parent="1" source="hoCIb34Ze-bhecXJoOf7-3" target="9KyPF48bXteJOs5gvEsx-4" edge="1">
          <mxGeometry width="50" height="50" relative="1" as="geometry">
            <mxPoint x="115" y="349" as="sourcePoint" />
            <mxPoint x="165" y="299" as="targetPoint" />
          </mxGeometry>
        </mxCell>
        <mxCell id="hoCIb34Ze-bhecXJoOf7-47" value="" style="endArrow=none;html=1;rounded=0;exitX=0;exitY=0.5;exitDx=0;exitDy=0;entryX=1;entryY=0.5;entryDx=0;entryDy=0;" parent="1" source="hoCIb34Ze-bhecXJoOf7-3" target="9KyPF48bXteJOs5gvEsx-3" edge="1">
          <mxGeometry width="50" height="50" relative="1" as="geometry">
            <mxPoint x="115" y="349" as="sourcePoint" />
            <mxPoint x="165" y="299" as="targetPoint" />
          </mxGeometry>
        </mxCell>
        <mxCell id="hoCIb34Ze-bhecXJoOf7-48" value="1" style="text;html=1;strokeColor=none;fillColor=none;align=center;verticalAlign=middle;whiteSpace=wrap;rounded=0;" parent="1" vertex="1">
          <mxGeometry x="-97" y="324" width="24" height="19" as="geometry" />
        </mxCell>
        <mxCell id="hoCIb34Ze-bhecXJoOf7-49" value="N" style="text;html=1;strokeColor=none;fillColor=none;align=center;verticalAlign=middle;whiteSpace=wrap;rounded=0;" parent="1" vertex="1">
          <mxGeometry x="254" y="322" width="24" height="19" as="geometry" />
        </mxCell>
        <mxCell id="hoCIb34Ze-bhecXJoOf7-51" value="1" style="text;html=1;strokeColor=none;fillColor=none;align=center;verticalAlign=middle;whiteSpace=wrap;rounded=0;" parent="1" vertex="1">
          <mxGeometry x="122" y="523" width="24" height="19" as="geometry" />
        </mxCell>
        <mxCell id="hoCIb34Ze-bhecXJoOf7-52" value="N" style="text;html=1;strokeColor=none;fillColor=none;align=center;verticalAlign=middle;whiteSpace=wrap;rounded=0;" parent="1" vertex="1">
          <mxGeometry x="290" y="322.5" width="24" height="19" as="geometry" />
        </mxCell>
        <mxCell id="hoCIb34Ze-bhecXJoOf7-59" value="" style="endArrow=none;html=1;rounded=0;exitX=1;exitY=0.5;exitDx=0;exitDy=0;entryX=0.25;entryY=1;entryDx=0;entryDy=0;" parent="1" source="9KyPF48bXteJOs5gvEsx-74" target="9KyPF48bXteJOs5gvEsx-4" edge="1">
          <mxGeometry width="50" height="50" relative="1" as="geometry">
            <mxPoint x="262" y="249" as="sourcePoint" />
            <mxPoint x="312" y="199" as="targetPoint" />
            <Array as="points" />
          </mxGeometry>
        </mxCell>
        <mxCell id="hoCIb34Ze-bhecXJoOf7-61" value="" style="endArrow=none;html=1;rounded=0;exitX=0.5;exitY=1;exitDx=0;exitDy=0;entryX=0.5;entryY=0;entryDx=0;entryDy=0;" parent="1" source="9KyPF48bXteJOs5gvEsx-39" target="9KyPF48bXteJOs5gvEsx-4" edge="1">
          <mxGeometry width="50" height="50" relative="1" as="geometry">
            <mxPoint x="265" y="249" as="sourcePoint" />
            <mxPoint x="315" y="199" as="targetPoint" />
          </mxGeometry>
        </mxCell>
        <mxCell id="hoCIb34Ze-bhecXJoOf7-62" value="" style="endArrow=none;html=1;rounded=0;entryX=0.5;entryY=1;entryDx=0;entryDy=0;exitX=0.5;exitY=0;exitDx=0;exitDy=0;" parent="1" source="9KyPF48bXteJOs5gvEsx-4" target="9KyPF48bXteJOs5gvEsx-41" edge="1">
          <mxGeometry width="50" height="50" relative="1" as="geometry">
            <mxPoint x="265" y="249" as="sourcePoint" />
            <mxPoint x="315" y="199" as="targetPoint" />
          </mxGeometry>
        </mxCell>
        <mxCell id="hoCIb34Ze-bhecXJoOf7-63" value="" style="endArrow=none;html=1;rounded=0;exitX=1;exitY=1;exitDx=0;exitDy=0;entryX=0.5;entryY=0;entryDx=0;entryDy=0;" parent="1" source="9KyPF48bXteJOs5gvEsx-37" target="9KyPF48bXteJOs5gvEsx-4" edge="1">
          <mxGeometry width="50" height="50" relative="1" as="geometry">
            <mxPoint x="265" y="249" as="sourcePoint" />
            <mxPoint x="315" y="199" as="targetPoint" />
          </mxGeometry>
        </mxCell>
        <mxCell id="hoCIb34Ze-bhecXJoOf7-68" value="" style="endArrow=none;html=1;rounded=0;exitX=1;exitY=0.5;exitDx=0;exitDy=0;entryX=0;entryY=0.5;entryDx=0;entryDy=0;" parent="1" source="9KyPF48bXteJOs5gvEsx-25" target="9KyPF48bXteJOs5gvEsx-51" edge="1">
          <mxGeometry width="50" height="50" relative="1" as="geometry">
            <mxPoint x="-95" y="-39" as="sourcePoint" />
            <mxPoint x="-45" y="-89" as="targetPoint" />
          </mxGeometry>
        </mxCell>
        <mxCell id="hoCIb34Ze-bhecXJoOf7-69" value="" style="endArrow=none;html=1;rounded=0;exitX=1;exitY=0.5;exitDx=0;exitDy=0;entryX=0;entryY=0.5;entryDx=0;entryDy=0;" parent="1" source="9KyPF48bXteJOs5gvEsx-6" target="9KyPF48bXteJOs5gvEsx-51" edge="1">
          <mxGeometry width="50" height="50" relative="1" as="geometry">
            <mxPoint x="-95" y="-39" as="sourcePoint" />
            <mxPoint x="-45" y="-89" as="targetPoint" />
          </mxGeometry>
        </mxCell>
        <mxCell id="hoCIb34Ze-bhecXJoOf7-70" value="" style="endArrow=none;html=1;rounded=0;exitX=1;exitY=0.5;exitDx=0;exitDy=0;entryX=0;entryY=0.5;entryDx=0;entryDy=0;" parent="1" source="9KyPF48bXteJOs5gvEsx-7" target="9KyPF48bXteJOs5gvEsx-51" edge="1">
          <mxGeometry width="50" height="50" relative="1" as="geometry">
            <mxPoint x="-95" y="-39" as="sourcePoint" />
            <mxPoint x="-45" y="-89" as="targetPoint" />
          </mxGeometry>
        </mxCell>
        <mxCell id="hoCIb34Ze-bhecXJoOf7-71" value="" style="endArrow=none;html=1;rounded=0;exitX=1;exitY=0.5;exitDx=0;exitDy=0;entryX=0;entryY=0.5;entryDx=0;entryDy=0;" parent="1" source="9KyPF48bXteJOs5gvEsx-9" target="9KyPF48bXteJOs5gvEsx-51" edge="1">
          <mxGeometry width="50" height="50" relative="1" as="geometry">
            <mxPoint x="-95" y="-39" as="sourcePoint" />
            <mxPoint x="-45" y="-89" as="targetPoint" />
          </mxGeometry>
        </mxCell>
        <mxCell id="hoCIb34Ze-bhecXJoOf7-72" value="" style="endArrow=none;html=1;rounded=0;exitX=1;exitY=0.5;exitDx=0;exitDy=0;entryX=0;entryY=0.5;entryDx=0;entryDy=0;" parent="1" source="9KyPF48bXteJOs5gvEsx-10" target="9KyPF48bXteJOs5gvEsx-51" edge="1">
          <mxGeometry width="50" height="50" relative="1" as="geometry">
            <mxPoint x="-95" y="-39" as="sourcePoint" />
            <mxPoint x="-45" y="-89" as="targetPoint" />
          </mxGeometry>
        </mxCell>
        <mxCell id="hoCIb34Ze-bhecXJoOf7-73" value="" style="endArrow=none;html=1;rounded=0;exitX=1;exitY=0.5;exitDx=0;exitDy=0;entryX=0;entryY=0.5;entryDx=0;entryDy=0;" parent="1" source="9KyPF48bXteJOs5gvEsx-11" target="9KyPF48bXteJOs5gvEsx-51" edge="1">
          <mxGeometry width="50" height="50" relative="1" as="geometry">
            <mxPoint x="-95" y="-39" as="sourcePoint" />
            <mxPoint x="-45" y="-89" as="targetPoint" />
          </mxGeometry>
        </mxCell>
        <mxCell id="hoCIb34Ze-bhecXJoOf7-74" value="" style="endArrow=none;html=1;rounded=0;exitX=1;exitY=0.5;exitDx=0;exitDy=0;entryX=0;entryY=0.5;entryDx=0;entryDy=0;" parent="1" source="9KyPF48bXteJOs5gvEsx-23" target="9KyPF48bXteJOs5gvEsx-51" edge="1">
          <mxGeometry width="50" height="50" relative="1" as="geometry">
            <mxPoint x="-95" y="-39" as="sourcePoint" />
            <mxPoint x="-45" y="-89" as="targetPoint" />
          </mxGeometry>
        </mxCell>
        <mxCell id="hoCIb34Ze-bhecXJoOf7-76" value="" style="endArrow=none;html=1;rounded=0;exitX=0.5;exitY=1;exitDx=0;exitDy=0;entryX=1;entryY=0.5;entryDx=0;entryDy=0;" parent="1" source="9KyPF48bXteJOs5gvEsx-5" target="9KyPF48bXteJOs5gvEsx-31" edge="1">
          <mxGeometry width="50" height="50" relative="1" as="geometry">
            <mxPoint x="184" y="606" as="sourcePoint" />
            <mxPoint x="234" y="556" as="targetPoint" />
          </mxGeometry>
        </mxCell>
        <mxCell id="hoCIb34Ze-bhecXJoOf7-77" value="" style="endArrow=none;html=1;rounded=0;exitX=1;exitY=0;exitDx=0;exitDy=0;entryX=0.5;entryY=1;entryDx=0;entryDy=0;" parent="1" source="9KyPF48bXteJOs5gvEsx-32" target="9KyPF48bXteJOs5gvEsx-5" edge="1">
          <mxGeometry width="50" height="50" relative="1" as="geometry">
            <mxPoint x="184" y="606" as="sourcePoint" />
            <mxPoint x="234" y="556" as="targetPoint" />
          </mxGeometry>
        </mxCell>
        <mxCell id="hoCIb34Ze-bhecXJoOf7-78" value="" style="endArrow=none;html=1;rounded=0;entryX=0.5;entryY=1;entryDx=0;entryDy=0;exitX=0.5;exitY=0;exitDx=0;exitDy=0;" parent="1" source="9KyPF48bXteJOs5gvEsx-33" target="9KyPF48bXteJOs5gvEsx-5" edge="1">
          <mxGeometry width="50" height="50" relative="1" as="geometry">
            <mxPoint x="184" y="606" as="sourcePoint" />
            <mxPoint x="234" y="556" as="targetPoint" />
          </mxGeometry>
        </mxCell>
        <mxCell id="hoCIb34Ze-bhecXJoOf7-79" value="" style="endArrow=none;html=1;rounded=0;exitX=0.5;exitY=1;exitDx=0;exitDy=0;entryX=0;entryY=0.5;entryDx=0;entryDy=0;" parent="1" source="9KyPF48bXteJOs5gvEsx-5" target="hoCIb34Ze-bhecXJoOf7-35" edge="1">
          <mxGeometry width="50" height="50" relative="1" as="geometry">
            <mxPoint x="184" y="606" as="sourcePoint" />
            <mxPoint x="234" y="556" as="targetPoint" />
          </mxGeometry>
        </mxCell>
        <mxCell id="hoCIb34Ze-bhecXJoOf7-80" value="" style="endArrow=none;html=1;rounded=0;entryX=1;entryY=0.5;entryDx=0;entryDy=0;exitX=0;exitY=0.5;exitDx=0;exitDy=0;" parent="1" source="9KyPF48bXteJOs5gvEsx-3" target="9KyPF48bXteJOs5gvEsx-21" edge="1">
          <mxGeometry width="50" height="50" relative="1" as="geometry">
            <mxPoint x="-224" y="361" as="sourcePoint" />
            <mxPoint x="-174" y="311" as="targetPoint" />
          </mxGeometry>
        </mxCell>
        <mxCell id="hoCIb34Ze-bhecXJoOf7-81" value="" style="endArrow=none;html=1;rounded=0;exitX=1;exitY=0.5;exitDx=0;exitDy=0;entryX=0;entryY=0.5;entryDx=0;entryDy=0;" parent="1" source="9KyPF48bXteJOs5gvEsx-26" target="9KyPF48bXteJOs5gvEsx-3" edge="1">
          <mxGeometry width="50" height="50" relative="1" as="geometry">
            <mxPoint x="-224" y="361" as="sourcePoint" />
            <mxPoint x="-203" y="318" as="targetPoint" />
          </mxGeometry>
        </mxCell>
        <mxCell id="hoCIb34Ze-bhecXJoOf7-82" value="" style="endArrow=none;html=1;rounded=0;exitX=1;exitY=0.5;exitDx=0;exitDy=0;entryX=0;entryY=0.5;entryDx=0;entryDy=0;" parent="1" source="9KyPF48bXteJOs5gvEsx-89" target="9KyPF48bXteJOs5gvEsx-3" edge="1">
          <mxGeometry width="50" height="50" relative="1" as="geometry">
            <mxPoint x="-224" y="361" as="sourcePoint" />
            <mxPoint x="-224" y="311" as="targetPoint" />
          </mxGeometry>
        </mxCell>
        <mxCell id="hoCIb34Ze-bhecXJoOf7-83" value="" style="endArrow=none;html=1;rounded=0;exitX=1;exitY=0.5;exitDx=0;exitDy=0;entryX=0;entryY=0.5;entryDx=0;entryDy=0;" parent="1" source="9KyPF48bXteJOs5gvEsx-30" target="9KyPF48bXteJOs5gvEsx-3" edge="1">
          <mxGeometry width="50" height="50" relative="1" as="geometry">
            <mxPoint x="-224" y="361" as="sourcePoint" />
            <mxPoint x="-178" y="347" as="targetPoint" />
          </mxGeometry>
        </mxCell>
        <mxCell id="hoCIb34Ze-bhecXJoOf7-86" value="" style="endArrow=none;html=1;rounded=0;entryX=1;entryY=1;entryDx=0;entryDy=0;exitX=0.5;exitY=0;exitDx=0;exitDy=0;" parent="1" source="9KyPF48bXteJOs5gvEsx-4" target="9KyPF48bXteJOs5gvEsx-40" edge="1">
          <mxGeometry width="50" height="50" relative="1" as="geometry">
            <mxPoint x="78" y="261" as="sourcePoint" />
            <mxPoint x="128" y="211" as="targetPoint" />
          </mxGeometry>
        </mxCell>
        <mxCell id="hoCIb34Ze-bhecXJoOf7-87" value="" style="endArrow=none;html=1;rounded=0;entryX=0.5;entryY=1;entryDx=0;entryDy=0;exitX=0.5;exitY=0;exitDx=0;exitDy=0;" parent="1" source="9KyPF48bXteJOs5gvEsx-4" target="9KyPF48bXteJOs5gvEsx-38" edge="1">
          <mxGeometry width="50" height="50" relative="1" as="geometry">
            <mxPoint x="78" y="261" as="sourcePoint" />
            <mxPoint x="128" y="211" as="targetPoint" />
          </mxGeometry>
        </mxCell>
        <mxCell id="hoCIb34Ze-bhecXJoOf7-88" value="" style="endArrow=none;html=1;rounded=0;entryX=0;entryY=1;entryDx=0;entryDy=0;exitX=0.5;exitY=0;exitDx=0;exitDy=0;" parent="1" source="9KyPF48bXteJOs5gvEsx-4" target="9KyPF48bXteJOs5gvEsx-36" edge="1">
          <mxGeometry width="50" height="50" relative="1" as="geometry">
            <mxPoint x="78" y="261" as="sourcePoint" />
            <mxPoint x="128" y="211" as="targetPoint" />
          </mxGeometry>
        </mxCell>
        <mxCell id="hoCIb34Ze-bhecXJoOf7-90" value="Duracion" style="ellipse;whiteSpace=wrap;html=1;fillColor=#e1d5e7;strokeColor=#9673a6;gradientColor=none;" parent="1" vertex="1">
          <mxGeometry x="262.25" y="142" width="59.5" height="26" as="geometry" />
        </mxCell>
        <mxCell id="hoCIb34Ze-bhecXJoOf7-91" value="" style="endArrow=none;html=1;rounded=0;entryX=0.5;entryY=1;entryDx=0;entryDy=0;exitX=0.5;exitY=0;exitDx=0;exitDy=0;" parent="1" source="9KyPF48bXteJOs5gvEsx-4" target="hoCIb34Ze-bhecXJoOf7-90" edge="1">
          <mxGeometry width="50" height="50" relative="1" as="geometry">
            <mxPoint x="285" y="261" as="sourcePoint" />
            <mxPoint x="335" y="211" as="targetPoint" />
          </mxGeometry>
        </mxCell>
        <mxCell id="hoCIb34Ze-bhecXJoOf7-92" value="Tiempo visto" style="ellipse;whiteSpace=wrap;html=1;fillColor=#e1d5e7;strokeColor=#9673a6;gradientColor=none;" parent="1" vertex="1">
          <mxGeometry x="-46" y="146" width="80" height="26" as="geometry" />
        </mxCell>
        <mxCell id="hoCIb34Ze-bhecXJoOf7-93" value="Valoración" style="ellipse;whiteSpace=wrap;html=1;fillColor=#e1d5e7;strokeColor=#9673a6;gradientColor=none;" parent="1" vertex="1">
          <mxGeometry x="56" y="146" width="87" height="26" as="geometry" />
        </mxCell>
        <mxCell id="hoCIb34Ze-bhecXJoOf7-98" value="" style="endArrow=none;html=1;rounded=0;exitX=1;exitY=1;exitDx=0;exitDy=0;entryX=0.5;entryY=0;entryDx=0;entryDy=0;" parent="1" source="hoCIb34Ze-bhecXJoOf7-92" target="hoCIb34Ze-bhecXJoOf7-18" edge="1">
          <mxGeometry width="50" height="50" relative="1" as="geometry">
            <mxPoint x="28" y="261" as="sourcePoint" />
            <mxPoint x="-10" y="189" as="targetPoint" />
          </mxGeometry>
        </mxCell>
        <mxCell id="hoCIb34Ze-bhecXJoOf7-99" value="" style="endArrow=none;html=1;rounded=0;entryX=0;entryY=1;entryDx=0;entryDy=0;exitX=0.5;exitY=0;exitDx=0;exitDy=0;" parent="1" source="hoCIb34Ze-bhecXJoOf7-18" target="hoCIb34Ze-bhecXJoOf7-93" edge="1">
          <mxGeometry width="50" height="50" relative="1" as="geometry">
            <mxPoint x="28" y="261" as="sourcePoint" />
            <mxPoint x="78" y="211" as="targetPoint" />
          </mxGeometry>
        </mxCell>
        <mxCell id="hoCIb34Ze-bhecXJoOf7-100" value="" style="endArrow=none;html=1;rounded=0;entryX=1;entryY=1;entryDx=0;entryDy=0;exitX=0.5;exitY=0;exitDx=0;exitDy=0;" parent="1" source="9KyPF48bXteJOs5gvEsx-2" target="9KyPF48bXteJOs5gvEsx-47" edge="1">
          <mxGeometry width="50" height="50" relative="1" as="geometry">
            <mxPoint x="248" y="-46" as="sourcePoint" />
            <mxPoint x="78" y="-89" as="targetPoint" />
          </mxGeometry>
        </mxCell>
        <mxCell id="hoCIb34Ze-bhecXJoOf7-101" value="" style="endArrow=none;html=1;rounded=0;entryX=1;entryY=1;entryDx=0;entryDy=0;exitX=0.5;exitY=0;exitDx=0;exitDy=0;" parent="1" source="9KyPF48bXteJOs5gvEsx-2" target="9KyPF48bXteJOs5gvEsx-46" edge="1">
          <mxGeometry width="50" height="50" relative="1" as="geometry">
            <mxPoint x="28" y="61" as="sourcePoint" />
            <mxPoint x="78" y="11" as="targetPoint" />
          </mxGeometry>
        </mxCell>
        <mxCell id="hoCIb34Ze-bhecXJoOf7-102" value="" style="endArrow=none;html=1;rounded=0;entryX=0.5;entryY=1;entryDx=0;entryDy=0;exitX=0.5;exitY=0;exitDx=0;exitDy=0;" parent="1" source="9KyPF48bXteJOs5gvEsx-2" target="9KyPF48bXteJOs5gvEsx-48" edge="1">
          <mxGeometry width="50" height="50" relative="1" as="geometry">
            <mxPoint x="28" y="61" as="sourcePoint" />
            <mxPoint x="78" y="11" as="targetPoint" />
          </mxGeometry>
        </mxCell>
        <mxCell id="hoCIb34Ze-bhecXJoOf7-103" value="" style="endArrow=none;html=1;rounded=0;entryX=0;entryY=1;entryDx=0;entryDy=0;exitX=0.5;exitY=0;exitDx=0;exitDy=0;" parent="1" source="9KyPF48bXteJOs5gvEsx-2" target="9KyPF48bXteJOs5gvEsx-49" edge="1">
          <mxGeometry width="50" height="50" relative="1" as="geometry">
            <mxPoint x="28" y="61" as="sourcePoint" />
            <mxPoint x="78" y="11" as="targetPoint" />
          </mxGeometry>
        </mxCell>
        <mxCell id="hoCIb34Ze-bhecXJoOf7-104" value="" style="endArrow=none;html=1;rounded=0;entryX=0;entryY=0.5;entryDx=0;entryDy=0;exitX=0.5;exitY=0;exitDx=0;exitDy=0;" parent="1" source="9KyPF48bXteJOs5gvEsx-2" target="9KyPF48bXteJOs5gvEsx-50" edge="1">
          <mxGeometry width="50" height="50" relative="1" as="geometry">
            <mxPoint x="28" y="61" as="sourcePoint" />
            <mxPoint x="78" y="11" as="targetPoint" />
          </mxGeometry>
        </mxCell>
        <mxCell id="Tm-ycbQe2N45LjwtOxG4-1" value="Idioma config" style="ellipse;whiteSpace=wrap;html=1;fillColor=#e1d5e7;strokeColor=#9673a6;gradientColor=none;" parent="1" vertex="1">
          <mxGeometry x="-362.5" y="260.5" width="120" height="26" as="geometry" />
        </mxCell>
        <mxCell id="Tm-ycbQe2N45LjwtOxG4-2" value="" style="endArrow=none;html=1;rounded=0;exitX=1;exitY=0.5;exitDx=0;exitDy=0;entryX=0;entryY=0.5;entryDx=0;entryDy=0;" parent="1" source="Tm-ycbQe2N45LjwtOxG4-1" target="9KyPF48bXteJOs5gvEsx-3" edge="1">
          <mxGeometry width="50" height="50" relative="1" as="geometry">
            <mxPoint x="-15" y="342" as="sourcePoint" />
            <mxPoint x="35" y="292" as="targetPoint" />
          </mxGeometry>
        </mxCell>
        <mxCell id="Tm-ycbQe2N45LjwtOxG4-4" value="Peso" style="ellipse;whiteSpace=wrap;html=1;fillColor=#e1d5e7;strokeColor=#9673a6;gradientColor=none;" parent="1" vertex="1">
          <mxGeometry x="787" y="174" width="100" height="23" as="geometry" />
        </mxCell>
        <mxCell id="Tm-ycbQe2N45LjwtOxG4-5" value="Peso" style="ellipse;whiteSpace=wrap;html=1;fillColor=#e1d5e7;strokeColor=#9673a6;gradientColor=none;" parent="1" vertex="1">
          <mxGeometry x="726.25" y="392" width="138" height="26" as="geometry" />
        </mxCell>
        <mxCell id="Tm-ycbQe2N45LjwtOxG4-6" value="Peso Cap" style="ellipse;whiteSpace=wrap;html=1;fillColor=#e1d5e7;strokeColor=#9673a6;gradientColor=none;" parent="1" vertex="1">
          <mxGeometry x="915.58" y="249" width="95.99" height="26" as="geometry" />
        </mxCell>
        <mxCell id="Tm-ycbQe2N45LjwtOxG4-8" value="Velocidad" style="ellipse;whiteSpace=wrap;html=1;fillColor=#e1d5e7;strokeColor=#9673a6;gradientColor=none;" parent="1" vertex="1">
          <mxGeometry x="364" y="420.5" width="83" height="26" as="geometry" />
        </mxCell>
        <mxCell id="Tm-ycbQe2N45LjwtOxG4-9" value="" style="endArrow=none;html=1;rounded=0;entryX=0;entryY=0.5;entryDx=0;entryDy=0;exitX=1;exitY=0.5;exitDx=0;exitDy=0;" parent="1" source="9KyPF48bXteJOs5gvEsx-70" target="Tm-ycbQe2N45LjwtOxG4-8" edge="1">
          <mxGeometry width="50" height="50" relative="1" as="geometry">
            <mxPoint x="282" y="435" as="sourcePoint" />
            <mxPoint x="332" y="385" as="targetPoint" />
          </mxGeometry>
        </mxCell>
        <mxCell id="Tm-ycbQe2N45LjwtOxG4-10" value="Premios" style="ellipse;whiteSpace=wrap;html=1;fillColor=#e1d5e7;strokeColor=#9673a6;gradientColor=none;" parent="1" vertex="1">
          <mxGeometry x="787" y="145" width="99" height="25" as="geometry" />
        </mxCell>
        <mxCell id="Yak00n13jt4ezQsWg91e-11" value="Año de lanzamiento" style="ellipse;whiteSpace=wrap;html=1;fillColor=#e1d5e7;strokeColor=#9673a6;gradientColor=none;" parent="1" vertex="1">
          <mxGeometry x="725" y="462" width="140.5" height="26" as="geometry" />
        </mxCell>
        <mxCell id="Tm-ycbQe2N45LjwtOxG4-11" value="&lt;u&gt;Titulo cast/ingles&lt;/u&gt;" style="ellipse;whiteSpace=wrap;html=1;fillColor=#e1d5e7;strokeColor=#9673a6;gradientColor=none;" parent="1" vertex="1">
          <mxGeometry x="785" y="80" width="99" height="27" as="geometry" />
        </mxCell>
        <mxCell id="Yak00n13jt4ezQsWg91e-12" value="Audio" style="ellipse;whiteSpace=wrap;html=1;fillColor=#e1d5e7;strokeColor=#9673a6;gradientColor=none;" parent="1" vertex="1">
          <mxGeometry x="725.75" y="427" width="139" height="24" as="geometry" />
        </mxCell>
        <mxCell id="Tm-ycbQe2N45LjwtOxG4-12" value="ATP" style="ellipse;whiteSpace=wrap;html=1;fillColor=#e1d5e7;strokeColor=#9673a6;gradientColor=none;" parent="1" vertex="1">
          <mxGeometry x="580" y="66.5" width="102" height="21" as="geometry" />
        </mxCell>
        <mxCell id="Tm-ycbQe2N45LjwtOxG4-13" value="Audio" style="ellipse;whiteSpace=wrap;html=1;fillColor=#e1d5e7;strokeColor=#9673a6;gradientColor=none;" parent="1" vertex="1">
          <mxGeometry x="789" y="201" width="98" height="24" as="geometry" />
        </mxCell>
        <mxCell id="Tm-ycbQe2N45LjwtOxG4-14" value="Subtitulos" style="ellipse;whiteSpace=wrap;html=1;fillColor=#e1d5e7;strokeColor=#9673a6;gradientColor=none;" parent="1" vertex="1">
          <mxGeometry x="789" y="116" width="94" height="26" as="geometry" />
        </mxCell>
        <mxCell id="Tm-ycbQe2N45LjwtOxG4-15" value="Duracion" style="ellipse;whiteSpace=wrap;html=1;fillColor=#e1d5e7;strokeColor=#9673a6;gradientColor=none;" parent="1" vertex="1">
          <mxGeometry x="726.25" y="48" width="91" height="22" as="geometry" />
        </mxCell>
        <mxCell id="Tm-ycbQe2N45LjwtOxG4-17" value="Año lanzamiento" style="ellipse;whiteSpace=wrap;html=1;fillColor=#e1d5e7;strokeColor=#9673a6;gradientColor=none;" parent="1" vertex="1">
          <mxGeometry x="656.5" y="20" width="101" height="26" as="geometry" />
        </mxCell>
        <mxCell id="Yak00n13jt4ezQsWg91e-13" value="" style="endArrow=none;html=1;rounded=0;exitX=0;exitY=0.5;exitDx=0;exitDy=0;" parent="1" source="Tm-ycbQe2N45LjwtOxG4-5" edge="1">
          <mxGeometry width="50" height="50" relative="1" as="geometry">
            <mxPoint x="364" y="319" as="sourcePoint" />
            <mxPoint x="680" y="381" as="targetPoint" />
          </mxGeometry>
        </mxCell>
        <mxCell id="Yak00n13jt4ezQsWg91e-14" value="" style="endArrow=none;html=1;rounded=0;exitX=0;exitY=0.5;exitDx=0;exitDy=0;" parent="1" source="Yak00n13jt4ezQsWg91e-11" edge="1">
          <mxGeometry width="50" height="50" relative="1" as="geometry">
            <mxPoint x="737" y="372.5" as="sourcePoint" />
            <mxPoint x="679" y="380" as="targetPoint" />
          </mxGeometry>
        </mxCell>
        <mxCell id="Tm-ycbQe2N45LjwtOxG4-19" value="" style="endArrow=none;html=1;rounded=0;entryX=0.5;entryY=1;entryDx=0;entryDy=0;exitX=1;exitY=0;exitDx=0;exitDy=0;" parent="1" source="9KyPF48bXteJOs5gvEsx-42" target="Tm-ycbQe2N45LjwtOxG4-12" edge="1">
          <mxGeometry width="50" height="50" relative="1" as="geometry">
            <mxPoint x="575" y="320" as="sourcePoint" />
            <mxPoint x="625" y="270" as="targetPoint" />
          </mxGeometry>
        </mxCell>
        <mxCell id="Yak00n13jt4ezQsWg91e-15" value="" style="endArrow=none;html=1;rounded=0;exitX=0;exitY=0.5;exitDx=0;exitDy=0;entryX=1;entryY=0;entryDx=0;entryDy=0;" parent="1" source="Yak00n13jt4ezQsWg91e-12" edge="1">
          <mxGeometry width="50" height="50" relative="1" as="geometry">
            <mxPoint x="737" y="408.5" as="sourcePoint" />
            <mxPoint x="679" y="381" as="targetPoint" />
          </mxGeometry>
        </mxCell>
        <mxCell id="Tm-ycbQe2N45LjwtOxG4-20" value="" style="endArrow=none;html=1;rounded=0;entryX=0.5;entryY=1;entryDx=0;entryDy=0;exitX=1;exitY=0;exitDx=0;exitDy=0;" parent="1" source="9KyPF48bXteJOs5gvEsx-42" target="Tm-ycbQe2N45LjwtOxG4-17" edge="1">
          <mxGeometry width="50" height="50" relative="1" as="geometry">
            <mxPoint x="575" y="320" as="sourcePoint" />
            <mxPoint x="625" y="270" as="targetPoint" />
          </mxGeometry>
        </mxCell>
        <mxCell id="Tm-ycbQe2N45LjwtOxG4-21" value="" style="endArrow=none;html=1;rounded=0;exitX=0.5;exitY=1;exitDx=0;exitDy=0;entryX=1;entryY=0;entryDx=0;entryDy=0;" parent="1" source="Tm-ycbQe2N45LjwtOxG4-15" target="9KyPF48bXteJOs5gvEsx-42" edge="1">
          <mxGeometry width="50" height="50" relative="1" as="geometry">
            <mxPoint x="575" y="320" as="sourcePoint" />
            <mxPoint x="708" y="209" as="targetPoint" />
          </mxGeometry>
        </mxCell>
        <mxCell id="Tm-ycbQe2N45LjwtOxG4-22" value="" style="endArrow=none;html=1;rounded=0;entryX=0;entryY=0.5;entryDx=0;entryDy=0;exitX=1;exitY=0;exitDx=0;exitDy=0;" parent="1" source="9KyPF48bXteJOs5gvEsx-42" target="Tm-ycbQe2N45LjwtOxG4-11" edge="1">
          <mxGeometry width="50" height="50" relative="1" as="geometry">
            <mxPoint x="575" y="320" as="sourcePoint" />
            <mxPoint x="625" y="270" as="targetPoint" />
          </mxGeometry>
        </mxCell>
        <mxCell id="Tm-ycbQe2N45LjwtOxG4-23" value="" style="endArrow=none;html=1;rounded=0;exitX=0;exitY=0.5;exitDx=0;exitDy=0;entryX=1;entryY=0;entryDx=0;entryDy=0;" parent="1" source="Tm-ycbQe2N45LjwtOxG4-14" target="9KyPF48bXteJOs5gvEsx-42" edge="1">
          <mxGeometry width="50" height="50" relative="1" as="geometry">
            <mxPoint x="575" y="320" as="sourcePoint" />
            <mxPoint x="625" y="270" as="targetPoint" />
          </mxGeometry>
        </mxCell>
        <mxCell id="Tm-ycbQe2N45LjwtOxG4-24" value="" style="endArrow=none;html=1;rounded=0;exitX=0;exitY=0.5;exitDx=0;exitDy=0;entryX=1;entryY=0;entryDx=0;entryDy=0;" parent="1" source="Tm-ycbQe2N45LjwtOxG4-10" target="9KyPF48bXteJOs5gvEsx-42" edge="1">
          <mxGeometry width="50" height="50" relative="1" as="geometry">
            <mxPoint x="575" y="320" as="sourcePoint" />
            <mxPoint x="625" y="270" as="targetPoint" />
          </mxGeometry>
        </mxCell>
        <mxCell id="Tm-ycbQe2N45LjwtOxG4-25" value="" style="endArrow=none;html=1;rounded=0;entryX=0;entryY=0.5;entryDx=0;entryDy=0;exitX=1;exitY=0;exitDx=0;exitDy=0;" parent="1" source="9KyPF48bXteJOs5gvEsx-42" target="Tm-ycbQe2N45LjwtOxG4-4" edge="1">
          <mxGeometry width="50" height="50" relative="1" as="geometry">
            <mxPoint x="575" y="320" as="sourcePoint" />
            <mxPoint x="625" y="270" as="targetPoint" />
          </mxGeometry>
        </mxCell>
        <mxCell id="Tm-ycbQe2N45LjwtOxG4-26" value="" style="endArrow=none;html=1;rounded=0;entryX=0;entryY=0.5;entryDx=0;entryDy=0;exitX=1;exitY=0;exitDx=0;exitDy=0;" parent="1" source="9KyPF48bXteJOs5gvEsx-42" target="Tm-ycbQe2N45LjwtOxG4-13" edge="1">
          <mxGeometry width="50" height="50" relative="1" as="geometry">
            <mxPoint x="575" y="320" as="sourcePoint" />
            <mxPoint x="625" y="270" as="targetPoint" />
          </mxGeometry>
        </mxCell>
        <mxCell id="Tm-ycbQe2N45LjwtOxG4-27" value="Cant Cap" style="ellipse;whiteSpace=wrap;html=1;fillColor=#e1d5e7;strokeColor=#9673a6;gradientColor=none;" parent="1" vertex="1">
          <mxGeometry x="921.5699999999999" y="373" width="92.99" height="26" as="geometry" />
        </mxCell>
        <mxCell id="Tm-ycbQe2N45LjwtOxG4-29" value="Audio" style="ellipse;whiteSpace=wrap;html=1;fillColor=#e1d5e7;strokeColor=#9673a6;gradientColor=none;" parent="1" vertex="1">
          <mxGeometry x="918.58" y="216.5" width="89.99" height="26" as="geometry" />
        </mxCell>
        <mxCell id="Tm-ycbQe2N45LjwtOxG4-30" value="Subtitulos" style="ellipse;whiteSpace=wrap;html=1;fillColor=#e1d5e7;strokeColor=#9673a6;gradientColor=none;" parent="1" vertex="1">
          <mxGeometry x="921.57" y="341.5" width="90" height="26" as="geometry" />
        </mxCell>
        <mxCell id="Tm-ycbQe2N45LjwtOxG4-32" value="Cant Temp" style="ellipse;whiteSpace=wrap;html=1;fillColor=#e1d5e7;strokeColor=#9673a6;gradientColor=none;" parent="1" vertex="1">
          <mxGeometry x="920.13" y="310" width="90.87" height="26" as="geometry" />
        </mxCell>
        <mxCell id="Tm-ycbQe2N45LjwtOxG4-31" value="&lt;u&gt;Titulo cast/ingles&lt;/u&gt;" style="ellipse;whiteSpace=wrap;html=1;fillColor=#e1d5e7;strokeColor=#9673a6;gradientColor=none;" parent="1" vertex="1">
          <mxGeometry x="916.5699999999999" y="279.5" width="97.99" height="27" as="geometry" />
        </mxCell>
        <mxCell id="Tm-ycbQe2N45LjwtOxG4-33" value="&lt;u&gt;Titulo&lt;/u&gt;" style="ellipse;whiteSpace=wrap;html=1;fillColor=#e1d5e7;strokeColor=#9673a6;gradientColor=none;" parent="1" vertex="1">
          <mxGeometry x="725" y="499" width="140.5" height="26" as="geometry" />
        </mxCell>
        <mxCell id="Tm-ycbQe2N45LjwtOxG4-34" value="" style="endArrow=none;html=1;rounded=0;entryX=1;entryY=0.5;entryDx=0;entryDy=0;exitX=0;exitY=0.5;exitDx=0;exitDy=0;" parent="1" source="Tm-ycbQe2N45LjwtOxG4-33" target="9KyPF48bXteJOs5gvEsx-44" edge="1">
          <mxGeometry width="50" height="50" relative="1" as="geometry">
            <mxPoint x="614" y="413" as="sourcePoint" />
            <mxPoint x="664" y="363" as="targetPoint" />
          </mxGeometry>
        </mxCell>
        <mxCell id="Tm-ycbQe2N45LjwtOxG4-35" value="" style="endArrow=none;html=1;rounded=0;entryX=0;entryY=0.5;entryDx=0;entryDy=0;exitX=1;exitY=0.5;exitDx=0;exitDy=0;" parent="1" source="9KyPF48bXteJOs5gvEsx-43" target="Tm-ycbQe2N45LjwtOxG4-27" edge="1">
          <mxGeometry width="50" height="50" relative="1" as="geometry">
            <mxPoint x="690" y="437" as="sourcePoint" />
            <mxPoint x="740" y="387" as="targetPoint" />
          </mxGeometry>
        </mxCell>
        <mxCell id="Tm-ycbQe2N45LjwtOxG4-36" value="" style="endArrow=none;html=1;rounded=0;exitX=0;exitY=0.5;exitDx=0;exitDy=0;entryX=1;entryY=0.5;entryDx=0;entryDy=0;" parent="1" source="Tm-ycbQe2N45LjwtOxG4-30" target="9KyPF48bXteJOs5gvEsx-43" edge="1">
          <mxGeometry width="50" height="50" relative="1" as="geometry">
            <mxPoint x="690" y="437" as="sourcePoint" />
            <mxPoint x="688" y="308" as="targetPoint" />
          </mxGeometry>
        </mxCell>
        <mxCell id="Tm-ycbQe2N45LjwtOxG4-37" value="" style="endArrow=none;html=1;rounded=0;exitX=1;exitY=0.5;exitDx=0;exitDy=0;entryX=0;entryY=0.5;entryDx=0;entryDy=0;" parent="1" source="9KyPF48bXteJOs5gvEsx-43" target="Tm-ycbQe2N45LjwtOxG4-32" edge="1">
          <mxGeometry width="50" height="50" relative="1" as="geometry">
            <mxPoint x="690" y="437" as="sourcePoint" />
            <mxPoint x="740" y="387" as="targetPoint" />
          </mxGeometry>
        </mxCell>
        <mxCell id="Tm-ycbQe2N45LjwtOxG4-38" value="" style="endArrow=none;html=1;rounded=0;exitX=1;exitY=0.5;exitDx=0;exitDy=0;entryX=0;entryY=0.5;entryDx=0;entryDy=0;" parent="1" source="9KyPF48bXteJOs5gvEsx-43" target="Tm-ycbQe2N45LjwtOxG4-31" edge="1">
          <mxGeometry width="50" height="50" relative="1" as="geometry">
            <mxPoint x="690" y="437" as="sourcePoint" />
            <mxPoint x="740" y="387" as="targetPoint" />
          </mxGeometry>
        </mxCell>
        <mxCell id="Tm-ycbQe2N45LjwtOxG4-39" value="" style="endArrow=none;html=1;rounded=0;exitX=1;exitY=0.5;exitDx=0;exitDy=0;entryX=0;entryY=0.5;entryDx=0;entryDy=0;" parent="1" source="9KyPF48bXteJOs5gvEsx-43" target="Tm-ycbQe2N45LjwtOxG4-6" edge="1">
          <mxGeometry width="50" height="50" relative="1" as="geometry">
            <mxPoint x="690" y="437" as="sourcePoint" />
            <mxPoint x="740" y="387" as="targetPoint" />
          </mxGeometry>
        </mxCell>
        <mxCell id="Tm-ycbQe2N45LjwtOxG4-40" value="" style="endArrow=none;html=1;rounded=0;exitX=1;exitY=0.5;exitDx=0;exitDy=0;entryX=0;entryY=0.5;entryDx=0;entryDy=0;" parent="1" source="9KyPF48bXteJOs5gvEsx-43" target="Tm-ycbQe2N45LjwtOxG4-29" edge="1">
          <mxGeometry width="50" height="50" relative="1" as="geometry">
            <mxPoint x="690" y="437" as="sourcePoint" />
            <mxPoint x="740" y="387" as="targetPoint" />
          </mxGeometry>
        </mxCell>
        <mxCell id="Tm-ycbQe2N45LjwtOxG4-42" value="Calidad" style="ellipse;whiteSpace=wrap;html=1;fillColor=#e1d5e7;strokeColor=#9673a6;gradientColor=none;" parent="1" vertex="1">
          <mxGeometry x="64" y="436" width="77" height="26" as="geometry" />
        </mxCell>
        <mxCell id="Tm-ycbQe2N45LjwtOxG4-43" value="" style="endArrow=none;html=1;rounded=0;exitX=0.5;exitY=1;exitDx=0;exitDy=0;entryX=0.5;entryY=0;entryDx=0;entryDy=0;" parent="1" source="9KyPF48bXteJOs5gvEsx-74" target="Tm-ycbQe2N45LjwtOxG4-42" edge="1">
          <mxGeometry width="50" height="50" relative="1" as="geometry">
            <mxPoint x="159" y="437" as="sourcePoint" />
            <mxPoint x="209" y="387" as="targetPoint" />
          </mxGeometry>
        </mxCell>
        <mxCell id="Yak00n13jt4ezQsWg91e-17" value="Duración" style="ellipse;whiteSpace=wrap;html=1;fillColor=#e1d5e7;strokeColor=#9673a6;gradientColor=none;" parent="1" vertex="1">
          <mxGeometry x="9" y="468" width="77" height="26" as="geometry" />
        </mxCell>
        <mxCell id="Yak00n13jt4ezQsWg91e-18" value="" style="endArrow=none;html=1;rounded=0;entryX=0.5;entryY=0;entryDx=0;entryDy=0;" parent="1" target="Yak00n13jt4ezQsWg91e-17" edge="1">
          <mxGeometry width="50" height="50" relative="1" as="geometry">
            <mxPoint x="45" y="419" as="sourcePoint" />
            <mxPoint x="97" y="447" as="targetPoint" />
          </mxGeometry>
        </mxCell>
        <mxCell id="Yak00n13jt4ezQsWg91e-19" value="Favoritos" style="ellipse;whiteSpace=wrap;html=1;fillColor=#e1d5e7;strokeColor=#9673a6;gradientColor=none;" parent="1" vertex="1">
          <mxGeometry x="81" y="330.5" width="77" height="26" as="geometry" />
        </mxCell>
        <mxCell id="Yak00n13jt4ezQsWg91e-20" value="" style="endArrow=none;html=1;rounded=0;exitX=0.5;exitY=1;exitDx=0;exitDy=0;entryX=0;entryY=0.5;entryDx=0;entryDy=0;" parent="1" target="Yak00n13jt4ezQsWg91e-19" edge="1">
          <mxGeometry width="50" height="50" relative="1" as="geometry">
            <mxPoint x="71" y="328" as="sourcePoint" />
            <mxPoint x="128" y="344" as="targetPoint" />
          </mxGeometry>
        </mxCell>
        <mxCell id="RoOA0GciZpnKSTGlIow3-1" value="Peso dispositivo" style="ellipse;whiteSpace=wrap;html=1;fillColor=#e1d5e7;strokeColor=#9673a6;gradientColor=none;" parent="1" vertex="1">
          <mxGeometry x="130" y="564" width="120" height="26" as="geometry" />
        </mxCell>
        <mxCell id="RoOA0GciZpnKSTGlIow3-3" value="" style="endArrow=none;html=1;rounded=0;exitX=0.5;exitY=1;exitDx=0;exitDy=0;entryX=0;entryY=0.5;entryDx=0;entryDy=0;" parent="1" source="9KyPF48bXteJOs5gvEsx-5" target="RoOA0GciZpnKSTGlIow3-1" edge="1">
          <mxGeometry width="50" height="50" relative="1" as="geometry">
            <mxPoint x="19" y="542" as="sourcePoint" />
            <mxPoint x="69" y="492" as="targetPoint" />
          </mxGeometry>
        </mxCell>
      </root>
    </mxGraphModel>
  </diagram>
</mxfile>
